# xmcd CD database file
#
# Track frame offsets:
#	150
#	10935
#	38309
#	65690
#	85476
#	96274
#	117511
#	147676
#	177721
#	199369
#	227088
#
# Disc length: 3126 seconds
#
# Revision: 0
# Processed by: cddbd v1.5.2PL0 Copyright (c) Steve Scherf et al.
# Submitted via: CDex 1.51
#
DISCID=a20c340b
DTITLE=Christian WEIDNER - Inward song
DYEAR=2010
DGENRE=Jazz
TTITLE0=St. Paul
TTITLE1=Abendlied
TTITLE2=Relief
TTITLE3=Penta
TTITLE4=Lyra
TTITLE5=Psalm
TTITLE6=Poem For Ada
TTITLE7=Drawn Ones
TTITLE8=Ave
TTITLE9=The Inward Song
TTITLE10=Poem For Ada (Reprise)
EXTD=YEAR: 2010
EXTT0=
EXTT1=
EXTT2=
EXTT3=
EXTT4=
EXTT5=
EXTT6=
EXTT7=
EXTT8=
EXTT9=
EXTT10=
PLAYORDER=
